<?xml version="1.0" encoding="iso-8859-1"?>
<!-- Generator: Adobe Illustrator 19.0.0, SVG Export Plug-In . SVG Version: 6.00 Build 0)  -->
<svg version="1.1" id="Layer_1" xmlns="http://www.w3.org/2000/svg" xmlns:xlink="http://www.w3.org/1999/xlink" x="0px" y="0px"
	 viewBox="0 0 512 512" style="enable-background:new 0 0 512 512;" xml:space="preserve">
<g>
	<circle style="fill:#4C5870;" cx="255.999" cy="49.957" r="45.819"/>
	<path style="fill:#4C5870;" d="M255.999,121.959c-43.38,0-78.547,35.167-78.547,78.547h157.095
		C334.547,157.126,299.38,121.959,255.999,121.959z"/>
</g>
<g>
	<circle style="fill:#181818;" cx="78.547" cy="357.313" r="45.819"/>
	<path style="fill:#181818;" d="M78.547,429.315C35.167,429.315,0,464.482,0,507.863h157.095
		C157.095,464.482,121.928,429.315,78.547,429.315z"/>
</g>
<g>
	<circle style="fill:#269AF2;" cx="433.451" cy="357.313" r="45.819"/>
	<path style="fill:#269AF2;" d="M433.453,429.315c-43.38,0-78.547,35.167-78.547,78.547H512
		C512,464.482,476.833,429.315,433.453,429.315z"/>
</g>
<path style="fill:#4C5870;" d="M337.372,378.194l-68.28-39.422v-78.845c0-7.23-5.862-13.091-13.091-13.091
	c-7.229,0-13.091,5.861-13.091,13.091v78.845l-68.28,39.422c-6.262,3.614-8.407,11.621-4.791,17.883
	c3.616,6.262,11.624,8.407,17.883,4.791l68.28-39.422l68.28,39.422c2.062,1.19,4.312,1.756,6.533,1.756
	c4.524,0,8.926-2.347,11.35-6.547C345.778,389.816,343.633,381.808,337.372,378.194z"/>
<g>
</g>
<g>
</g>
<g>
</g>
<g>
</g>
<g>
</g>
<g>
</g>
<g>
</g>
<g>
</g>
<g>
</g>
<g>
</g>
<g>
</g>
<g>
</g>
<g>
</g>
<g>
</g>
<g>
</g>
</svg>
